<svg xmlns="http://www.w3.org/2000/svg" width="27.067" height="20.006" viewBox="0 0 27.067 20.006">
  <g id="Group_56086" data-name="Group 56086" transform="translate(-14324.111 -2286)">
    <g id="Group_56085" data-name="Group 56085" transform="translate(14320.111 1317.638)" opacity="0.6">
      <path id="Path_30" data-name="Path 30" d="M17.534,968.362a8.157,8.157,0,0,0-8.054,6.629,6.749,6.749,0,0,0,1.287,13.377H25.183a5.868,5.868,0,0,0,.533-11.713,8.148,8.148,0,0,0-8.183-8.293Z" transform="translate(0 0)"/>
    </g>
    <path id="Path_3817" data-name="Path 3817" d="M17.534,974.54a.79.79,0,0,0-.6.23L13.7,977.712a.891.891,0,0,0-.055,1.25.923.923,0,0,0,1.25.055l1.756-1.6v5.654a.883.883,0,1,0,1.765,0v-5.654l1.756,1.6a.943.943,0,0,0,1.25-.055.888.888,0,0,0-.055-1.25l-3.236-2.942A.744.744,0,0,0,17.534,974.54Z" transform="translate(14320.111 1317.546)" fill="#fff"/>
  </g>
</svg>
